<svg width="64" height="65" viewBox="0 0 64 65" fill="none" xmlns="http://www.w3.org/2000/svg">
<circle cx="32" cy="32.4407" r="32" transform="rotate(-90 32 32.4407)" fill="white" fill-opacity="0.32"/>
<path d="M24.128 41.6567C22.896 41.6567 21.776 41.4247 20.768 40.9607C19.776 40.4967 19 39.8567 18.44 39.0407C17.88 38.2247 17.6 37.3047 17.6 36.2807C17.6 35.5607 17.904 35.0647 18.512 34.7927C19.136 34.5047 20.016 34.3607 21.152 34.3607C21.104 34.6167 21.08 35.0007 21.08 35.5127C21.08 36.5207 21.336 37.2887 21.848 37.8167C22.36 38.3287 23.12 38.5847 24.128 38.5847C25.12 38.5847 25.872 38.2967 26.384 37.7207C26.912 37.1447 27.176 36.3127 27.176 35.2247L27.176 27.6887H24.896C24.096 27.6887 23.496 27.4407 23.096 26.9447C22.712 26.4327 22.52 25.6647 22.52 24.6407H28.976C29.456 24.6407 29.864 24.8007 30.2 25.1207C30.536 25.4247 30.704 25.8007 30.704 26.2487L30.704 35.2247C30.704 36.4567 30.416 37.5607 29.84 38.5367C29.28 39.5127 28.496 40.2807 27.488 40.8407C26.496 41.3847 25.376 41.6567 24.128 41.6567ZM40.0183 41.6567C37.7783 41.6567 36.0023 41.2727 34.6903 40.5047C33.3943 39.7367 32.7463 38.6727 32.7463 37.3127C32.7463 36.7207 32.9703 36.2407 33.4183 35.8727C33.8663 35.5047 34.6183 35.3207 35.6743 35.3207C35.7383 36.4887 36.1383 37.3767 36.8743 37.9847C37.6263 38.5767 38.6743 38.8727 40.0183 38.8727C41.0583 38.8727 41.8743 38.6967 42.4663 38.3447C43.0583 37.9767 43.3543 37.4727 43.3543 36.8327C43.3543 36.4007 43.2423 36.0487 43.0183 35.7767C42.7943 35.5047 42.4023 35.2567 41.8423 35.0327C41.2983 34.8087 40.4983 34.5767 39.4423 34.3367C37.8423 33.9687 36.5863 33.5527 35.6743 33.0887C34.7623 32.6247 34.0983 32.0727 33.6823 31.4327C33.2823 30.7927 33.0823 29.9927 33.0823 29.0327C33.0823 28.1207 33.3543 27.3207 33.8983 26.6327C34.4583 25.9287 35.2343 25.3847 36.2263 25.0007C37.2183 24.6167 38.3703 24.4247 39.6823 24.4247C40.9303 24.4247 42.0503 24.5927 43.0423 24.9287C44.0343 25.2487 44.8103 25.7047 45.3703 26.2967C45.9303 26.8887 46.2103 27.5687 46.2103 28.3367C46.2103 28.9287 45.9863 29.4007 45.5383 29.7527C45.1063 30.0887 44.3863 30.2727 43.3783 30.3047C43.2983 29.2327 42.9703 28.4487 42.3943 27.9527C41.8183 27.4567 40.9143 27.2087 39.6823 27.2087C38.6743 27.2087 37.8983 27.3687 37.3543 27.6887C36.8103 28.0087 36.5383 28.4727 36.5383 29.0807C36.5383 29.4967 36.6423 29.8407 36.8503 30.1127C37.0583 30.3687 37.4103 30.6007 37.9062 30.8087C38.4183 31.0167 39.1463 31.2247 40.0903 31.4327C41.7383 31.8007 43.0423 32.2247 44.0023 32.7047C44.9783 33.1687 45.6823 33.7287 46.1143 34.3847C46.5623 35.0407 46.7863 35.8487 46.7863 36.8087C46.7863 37.7847 46.5063 38.6407 45.9463 39.3767C45.4023 40.1127 44.6183 40.6807 43.5943 41.0807C42.5863 41.4647 41.3943 41.6567 40.0183 41.6567Z" fill="white"/>
</svg>
